<svg width="109" height="25" fill="none" xmlns="http://www.w3.org/2000/svg"><path d="M8.406.8a4.992 4.992 0 00-5.729 4.137L.794 16.647a5.008 5.008 0 004.142 5.737L16.124 24.2a4.992 4.992 0 005.73-4.136l1.883-11.71a5.008 5.008 0 00-4.142-5.737L8.406.8zM8.04 11.91v-.003c.125-.776.249-1.553.376-2.329.332-2.025 2.107-3.324 4.196-3.024h.006c.813.117 1.651.238 2.406.533 1.777.694 2.701 2.537 2.337 4.43-.326 1.702-1.966 3.077-3.774 3.093-.628.006-1.265-.113-1.888-.23l-.04-.007c-.523-.097-.849-.621-.765-1.112.087-.507.569-.85 1.125-.79.171.02.342.045.513.071.275.042.55.084.827.095 1.067.045 1.896-.673 2.054-1.737.139-.94-.504-1.895-1.492-2.14a11.663 11.663 0 00-1.736-.285 1.64 1.64 0 00-1.77 1.385c-.215 1.333-.43 2.666-.643 4l-.002.01-.492 3.055c-.1.63-.587 1.005-1.175.91-.558-.088-.914-.613-.818-1.222.137-.865.276-1.73.416-2.594l.17-1.06.169-1.05zm3.28 4.55c.5.08.837.56.755 1.071a.924.924 0 01-1.052.779.927.927 0 01-.754-1.072.924.924 0 011.052-.778z" fill="#34B3E6"/><path d="M28.552 15.89v-4.38a4.59 4.59 0 011.284-3.305 4.524 4.524 0 013.245-1.384 13.725 13.725 0 013.04.182c2.312.567 3.883 2.727 3.722 5.118a5 5 0 01-3.998 4.679c-.792.112-1.593.145-2.392.096a1.228 1.228 0 01-1.159-1.242 1.259 1.259 0 011.223-1.231c.553 0 1.116 0 1.67-.065a2.522 2.522 0 002.147-2.538 2.52 2.52 0 00-2.222-2.472 13.472 13.472 0 00-2.127 0 2.136 2.136 0 00-1.881 2.141v9.1a1.29 1.29 0 01-.327.972 1.272 1.272 0 01-1.88.012 1.3 1.3 0 01-.345-.983v-4.7zM40.485 9.473V7.574a1.257 1.257 0 01.35-.96c.247-.255.59-.392.944-.376.344-.004.674.138.909.393.234.255.351.597.321.943v3.65c-.06.946.406 1.848 1.21 2.34a2.506 2.506 0 002.618 0 2.552 2.552 0 001.21-2.34v-3.65c-.056-.468.153-.93.542-1.192.39-.263.892-.282 1.3-.05.408.231.652.675.63 1.147 0 1.464.053 2.927-.063 4.38-.297 2.626-2.569 4.564-5.185 4.424-2.685-.164-4.771-2.422-4.744-5.134-.042-.562-.042-1.114-.042-1.676zM60.567 7.819c.407-.331.832-.638 1.274-.92a4.94 4.94 0 014.992-.035 5.086 5.086 0 012.537 4.362v3.717c.026.348-.092.691-.326.947s-.563.4-.906.4a1.202 1.202 0 01-.91-.39 1.24 1.24 0 01-.322-.946v-3.707c-.018-1.41-1.147-2.547-2.538-2.552-.67 0-1.311.27-1.783.751a2.572 2.572 0 00-.733 1.812v3.707c0 .696-.557 1.26-1.243 1.26a1.252 1.252 0 01-1.242-1.26v-3.75c.003-1.312-.995-2.404-2.285-2.5a2.519 2.519 0 00-2.696 1.892c-.044.192-.061.39-.053.587v3.707a1.27 1.27 0 01-.388 1.045 1.231 1.231 0 01-1.054.322 1.06 1.06 0 01-1.053-1.004c-.083-1.598-.065-3.2.053-4.796.184-1.908 1.506-3.505 3.327-4.017a4.847 4.847 0 015.149 1.24l.2.128zM71.26 15.867v-4.384a4.379 4.379 0 013.535-4.427 7.513 7.513 0 015.424.605 5.025 5.025 0 012.345 4.246 5.025 5.025 0 01-2.345 4.246 5.008 5.008 0 01-2.627.765h-1.41a1.214 1.214 0 01-1.163-1.136 1.17 1.17 0 011.004-1.274c.503-.048 1.01-.07 1.516-.064a2.547 2.547 0 001.971-.941c.48-.594.667-1.371.506-2.116a2.428 2.428 0 00-2.05-1.921 12.65 12.65 0 00-2.456 0 2.01 2.01 0 00-1.762 2.049v9.16a1.24 1.24 0 01-.505 1.064c-.337.248-.777.31-1.17.168a1.263 1.263 0 01-.812-1.242v-4.798zM83.198 8.676v-6.2a1.247 1.247 0 011.23-1.366A1.274 1.274 0 0185.7 2.487v12.475a1.27 1.27 0 01-.93 1.281 1.23 1.23 0 01-1.476-.726 1.65 1.65 0 01-.096-.608V8.676zM95.722 2.375a1.282 1.282 0 011.288 1.243 1.293 1.293 0 01-1.257 1.286c-.448 0-.863-.24-1.087-.632a1.273 1.273 0 010-1.265c.224-.391.639-.632 1.088-.632h-.032zM97.004 11.204v3.709c.044.476-.184.936-.59 1.188a1.252 1.252 0 01-1.322 0 1.263 1.263 0 01-.59-1.188V7.538c-.026-.35.093-.695.329-.954.236-.26.568-.409.917-.414.35-.004.685.14.923.396.24.256.36.601.333.95v3.688zM93.083 14.89c.04.544-.26 1.055-.753 1.281a1.183 1.183 0 01-1.368-.266c-.7-.683-1.39-1.387-2.122-2.134l-1.453-1.462a1.219 1.219 0 010-1.942l3.48-3.5a1.249 1.249 0 011.77-.086 1.166 1.166 0 010 1.76c-.71.748-1.442 1.463-2.12 2.188-.468.47-.468.747 0 1.217.72.725 1.442 1.43 2.12 2.134.183.25.333.522.446.81zM98.494 9.954c.57-2.394 2.806-3.999 5.238-3.76a5.053 5.053 0 014.571 4.337c.016.181.016.364 0 .545v3.942c.011.337-.115.664-.349.904-.235.24-.557.374-.892.367a1.225 1.225 0 01-.888-.37 1.247 1.247 0 01-.353-.9v-3.793a2.542 2.542 0 00-2.529-2.389 2.543 2.543 0 00-2.529 2.389v3.707c.021.349-.103.69-.343.944a1.245 1.245 0 01-.919.391c-.341.001-.668-.141-.9-.393a1.245 1.245 0 01-.33-.932v-2.05c-.028-.985.046-1.97.223-2.939z" fill="#495057"/></svg>