<svg width="24" height="25" fill="none" xmlns="http://www.w3.org/2000/svg"><path d="M8.406.8a4.992 4.992 0 00-5.729 4.136L.794 16.646a5.008 5.008 0 004.142 5.738l11.188 1.815a4.992 4.992 0 005.73-4.136l1.883-11.71a5.008 5.008 0 00-4.142-5.737L8.406.8zM8.04 11.91v-.003c.125-.776.249-1.553.376-2.329.332-2.025 2.107-3.324 4.196-3.024h.006c.813.117 1.651.238 2.406.533 1.777.694 2.701 2.537 2.337 4.43-.326 1.701-1.966 3.077-3.774 3.093-.628.005-1.265-.113-1.888-.23l-.04-.007c-.523-.097-.849-.621-.765-1.112.087-.507.569-.85 1.125-.79.171.019.342.045.513.07.275.043.55.085.827.096 1.067.045 1.896-.673 2.054-1.737.139-.94-.504-1.895-1.492-2.14a11.663 11.663 0 00-1.736-.285 1.64 1.64 0 00-1.77 1.385c-.215 1.333-.43 2.666-.643 4l-.002.01-.492 3.055c-.1.63-.587 1.005-1.175.91-.558-.088-.914-.613-.818-1.222.137-.865.276-1.73.416-2.594l.17-1.06.169-1.05zm3.28 4.55c.5.08.837.56.755 1.07a.924.924 0 01-1.052.78.927.927 0 01-.754-1.072.924.924 0 011.052-.779z" fill="#34B3E6"/></svg>